<?xml version="1.0" standalone="no"?>
<!DOCTYPE svg PUBLIC "-//W3C//DTD SVG 20010904//EN"
 "http://www.w3.org/TR/2001/REC-SVG-20010904/DTD/svg10.dtd">
<svg version="1.0" xmlns="http://www.w3.org/2000/svg"
 width="800.000000pt" height="534.000000pt" viewBox="0 0 800.000000 534.000000"
 preserveAspectRatio="xMidYMid meet">

<g transform="translate(0.000000,534.000000) scale(0.100000,-0.100000)"
fill="#000000" stroke="none">
<path d="M3560 5045 l0 -295 2220 0 2220 0 0 295 0 295 -2220 0 -2220 0 0
-295z"/>
<path d="M438 5269 c-3 -8 -15 -37 -26 -65 l-21 -51 26 -38 c26 -38 18 -39
-31 -2 -17 12 -27 11 -83 -11 -35 -14 -60 -28 -56 -32 5 -4 32 -16 62 -28 l54
-22 39 25 c21 14 38 24 38 21 0 -2 -52 -131 -115 -286 -64 -155 -115 -284
-113 -286 2 -1 39 13 82 32 44 19 85 34 91 34 7 0 20 -18 30 -40 10 -23 22
-43 27 -46 4 -3 18 15 30 40 12 26 27 46 33 46 7 0 47 -15 91 -34 43 -19 80
-33 81 -32 2 2 -49 130 -112 284 -63 155 -115 284 -115 287 0 3 17 -6 38 -20
l39 -25 54 22 c30 12 57 24 62 28 4 4 -21 18 -56 32 -56 22 -66 23 -83 11 -49
-37 -57 -36 -31 2 l26 38 -20 50 c-29 73 -35 82 -41 66z"/>
<path d="M1321 5259 c-5 -13 -16 -42 -25 -63 -16 -39 -16 -40 10 -79 l26 -40
-35 21 c-43 27 -59 27 -122 -2 -49 -23 -49 -24 -25 -34 14 -5 43 -17 64 -26
39 -16 40 -16 79 10 22 14 38 20 35 13 -3 -8 -56 -137 -118 -287 -62 -150
-110 -275 -108 -277 2 -2 39 12 82 31 44 19 85 34 91 34 7 0 20 -18 30 -40 10
-23 22 -43 27 -46 4 -3 18 15 30 40 12 26 26 46 31 46 5 0 45 -16 90 -35 44
-19 82 -34 84 -32 1 2 -49 129 -112 283 -63 153 -115 282 -115 287 0 4 17 -4
38 -18 l39 -25 54 22 c30 12 57 24 62 28 4 4 -21 18 -56 32 -56 22 -66 23 -83
11 -10 -8 -27 -19 -37 -24 -16 -9 -17 -8 -8 8 5 10 16 27 24 37 13 17 11 26
-10 80 -30 75 -30 74 -42 45z"/>
<path d="M2212 5260 c-5 -14 -18 -44 -27 -67 -16 -41 -16 -43 5 -73 23 -32 17
-38 -14 -15 -27 20 -52 18 -111 -9 -49 -23 -49 -24 -25 -34 14 -5 43 -17 64
-26 39 -16 40 -16 78 9 l38 25 -20 -49 c-10 -27 -62 -154 -115 -282 -52 -128
-94 -237 -93 -241 2 -4 39 9 82 28 44 18 83 34 88 34 4 0 18 -20 30 -45 12
-25 25 -45 28 -45 3 0 16 20 28 45 12 25 27 45 33 45 6 0 47 -16 92 -35 44
-19 82 -34 83 -32 1 1 -49 128 -112 282 -63 153 -114 283 -114 288 0 5 15 -2
34 -17 l35 -26 58 21 c32 12 61 25 66 28 4 4 -21 19 -56 33 -56 22 -66 23 -83
11 -50 -38 -57 -37 -33 5 l22 39 -25 64 c-25 60 -27 63 -36 39z"/>
<path d="M3092 5240 c-34 -79 -35 -88 -13 -119 29 -40 26 -46 -8 -22 -37 26
-45 26 -115 -3 l-58 -23 66 -27 66 -26 40 26 40 27 40 -27 40 -26 65 26 c36
15 65 28 63 29 -2 2 -31 14 -65 28 l-61 25 -37 -25 -37 -25 23 39 22 40 -25
64 -26 64 -20 -45z"/>
<path d="M2989 4777 c-64 -155 -115 -283 -114 -285 1 -1 39 13 84 33 46 19 87
35 92 35 5 0 19 -20 31 -45 12 -25 25 -45 28 -45 3 0 16 20 28 45 12 25 27 45
33 45 6 0 47 -16 92 -35 44 -19 81 -34 83 -32 4 4 -229 567 -235 567 -3 0 -58
-127 -122 -283z"/>
<path d="M861 4494 c-26 -68 -26 -69 0 -105 24 -34 18 -37 -21 -9 l-29 20 -66
-26 -67 -27 58 -23 c70 -29 78 -29 115 -3 16 11 29 17 29 12 0 -6 -85 -217
-227 -561 -3 -7 32 4 78 24 46 20 89 38 94 40 6 3 22 -19 36 -48 l26 -53 27
53 c14 28 28 52 29 52 2 0 41 -16 86 -36 46 -19 85 -33 88 -31 2 3 -47 130
-110 284 -63 153 -113 280 -111 282 2 2 16 -6 32 -18 38 -26 46 -26 116 3 l58
23 -67 27 c-65 26 -67 26 -93 8 -51 -35 -54 -34 -27 6 l27 41 -23 61 c-13 33
-27 60 -30 60 -3 0 -16 -25 -28 -56z"/>
<path d="M1752 4495 c-27 -69 -27 -70 -1 -106 24 -34 18 -37 -22 -8 l-30 21
-57 -23 c-31 -12 -60 -25 -64 -28 -4 -4 20 -17 54 -30 l62 -24 38 22 c21 12
38 19 38 16 0 -3 -50 -128 -111 -278 -61 -150 -114 -278 -116 -285 -3 -7 32 4
78 24 46 20 89 38 94 40 6 3 22 -19 36 -48 l26 -53 27 53 26 52 33 -13 c17 -8
56 -24 85 -37 29 -12 55 -20 58 -18 3 3 -46 131 -109 284 -63 154 -113 281
-111 283 1 2 16 -6 32 -18 17 -12 37 -21 45 -21 25 0 118 43 110 51 -4 4 -32
17 -62 29 l-54 21 -39 -26 -39 -26 26 39 26 39 -21 54 c-12 30 -25 58 -29 62
-4 4 -18 -17 -29 -48z"/>
<path d="M2642 4499 c-26 -61 -27 -79 -7 -105 23 -31 17 -37 -15 -14 -30 21
-32 21 -73 5 -23 -9 -53 -22 -67 -27 -24 -9 -22 -11 34 -34 33 -13 65 -24 71
-24 22 0 92 57 114 93 l21 34 -22 54 c-12 30 -24 58 -28 62 -4 4 -17 -15 -28
-44z"/>
<path d="M2704 4372 c-36 -27 -46 -47 -151 -303 -62 -151 -115 -282 -118 -291
-6 -14 13 -9 85 23 51 22 94 38 95 37 1 -2 14 -25 28 -53 l25 -49 26 52 26 52
33 -13 c17 -8 56 -24 85 -37 29 -12 55 -21 57 -18 3 3 -46 130 -109 284 -63
153 -113 281 -111 283 2 2 18 -7 35 -19 34 -24 48 -23 121 9 l44 19 -45 19
c-79 35 -84 35 -126 5z"/>
<path d="M3560 3855 l0 -295 2220 0 2220 0 0 295 0 295 -2220 0 -2220 0 0
-295z"/>
<path d="M437 3818 c-3 -7 -14 -36 -25 -64 l-21 -51 25 -37 c27 -40 22 -46
-16 -16 -32 25 -35 25 -106 -4 l-59 -24 45 -20 c80 -34 88 -35 121 -12 16 12
32 21 33 19 2 -2 -48 -129 -110 -283 -63 -153 -113 -280 -111 -283 2 -2 41 12
86 32 46 19 86 35 90 35 4 0 18 -23 32 -51 l25 -51 24 51 c13 28 27 51 31 51
4 0 44 -16 90 -35 45 -20 83 -34 85 -32 2 2 -48 129 -110 283 -63 153 -113
280 -111 282 2 2 18 -6 34 -18 33 -23 41 -22 121 12 l45 20 -59 24 c-71 29
-74 29 -106 4 -38 -30 -43 -24 -16 16 l24 36 -25 61 c-29 72 -29 72 -36 55z"/>
<path d="M1306 3765 l-26 -66 20 -29 c28 -39 25 -45 -9 -21 -16 12 -34 21 -39
21 -23 0 -122 -44 -115 -51 4 -4 32 -17 62 -29 l54 -21 40 27 c22 14 38 20 35
13 -3 -8 -56 -137 -117 -288 -62 -150 -110 -275 -108 -277 2 -3 33 9 69 24
109 50 104 50 134 -10 l27 -53 25 53 c15 28 29 52 33 52 4 0 44 -16 90 -35 45
-20 83 -34 85 -32 2 1 -48 128 -111 282 -63 153 -113 281 -110 283 2 2 18 -6
35 -18 l31 -22 60 22 c33 13 61 26 63 29 3 4 -23 17 -57 30 l-61 24 -39 -22
-39 -23 25 37 25 37 -25 61 c-14 34 -26 63 -28 65 -1 2 -14 -27 -29 -63z"/>
<path d="M2212 3810 c-5 -14 -18 -44 -27 -67 -16 -41 -16 -43 4 -72 29 -40 26
-46 -8 -22 -16 12 -34 21 -39 21 -23 0 -122 -44 -115 -51 4 -4 32 -17 62 -29
l54 -21 40 27 c22 14 38 20 35 13 -3 -8 -56 -137 -118 -287 -62 -150 -110
-275 -107 -278 2 -2 33 9 69 24 109 50 104 50 134 -10 l27 -53 25 53 c15 28
29 52 33 52 4 0 44 -16 90 -35 45 -20 83 -34 84 -33 2 2 -48 129 -111 282 -63
154 -112 281 -110 284 3 2 19 -6 36 -18 l31 -22 60 22 c33 13 61 26 63 29 3 4
-23 17 -57 30 l-61 24 -39 -22 -38 -22 22 39 22 39 -25 64 c-25 60 -27 63 -36
39z"/>
<path d="M3102 3810 c-5 -14 -18 -44 -27 -67 -16 -41 -16 -43 4 -72 29 -40 26
-46 -8 -22 -16 12 -34 21 -39 21 -17 0 -122 -42 -122 -49 0 -3 27 -17 60 -30
l61 -23 40 27 41 26 40 -26 40 -27 56 23 c32 12 60 25 64 28 4 4 -20 17 -54
30 l-62 24 -39 -22 -38 -22 22 39 22 39 -25 64 c-25 60 -27 63 -36 39z"/>
<path d="M2991 3330 c-63 -154 -112 -283 -109 -285 3 -3 34 8 70 23 108 49
105 49 130 -2 12 -25 25 -46 28 -46 3 0 16 20 28 45 12 25 26 45 30 45 5 0 46
-16 91 -36 46 -19 84 -34 86 -32 4 5 -228 568 -234 568 -3 0 -57 -126 -120
-280z"/>
<path d="M0 2675 l0 -295 4000 0 4000 0 0 295 0 295 -4000 0 -4000 0 0 -295z"/>
<path d="M0 1485 l0 -295 4000 0 4000 0 0 295 0 295 -4000 0 -4000 0 0 -295z"/>
<path d="M0 305 l0 -295 4000 0 4000 0 0 295 0 295 -4000 0 -4000 0 0 -295z"/>
</g>
</svg>
